<svg width="41" height="40" viewBox="0 0 41 40" fill="none" xmlns="http://www.w3.org/2000/svg">
<g clip-path="url(#clip0_3_6698)">
<path d="M20.5 21.8749C21.5355 21.8749 22.375 21.0355 22.375 19.9999C22.375 18.9644 21.5355 18.1249 20.5 18.1249C19.4645 18.1249 18.625 18.9644 18.625 19.9999C18.625 21.0355 19.4645 21.8749 20.5 21.8749Z" fill="#EEA128"/>
<path d="M13.625 21.8749C14.6605 21.8749 15.5 21.0355 15.5 19.9999C15.5 18.9644 14.6605 18.1249 13.625 18.1249C12.5895 18.1249 11.75 18.9644 11.75 19.9999C11.75 21.0355 12.5895 21.8749 13.625 21.8749Z" fill="#EEA128"/>
<path d="M27.375 21.8749C28.4105 21.8749 29.25 21.0354 29.25 19.9999C29.25 18.9643 28.4105 18.1249 27.375 18.1249C26.3395 18.1249 25.5 18.9643 25.5 19.9999C25.5 21.0354 26.3395 21.8749 27.375 21.8749Z" fill="#EEA128"/>
<path d="M12.9886 32.9862C16.1394 34.8098 19.8459 35.4253 23.417 34.7179C26.9881 34.0105 30.1801 32.0285 32.3978 29.1415C34.6155 26.2544 35.7076 22.6594 35.4705 19.0267C35.2333 15.3939 33.6831 11.9714 31.1089 9.39714C28.5347 6.82293 25.1122 5.27274 21.4794 5.0356C17.8467 4.79846 14.2516 5.89055 11.3646 8.10827C8.4776 10.326 6.49563 13.5179 5.78823 17.089C5.08084 20.6601 5.6963 24.3666 7.51987 27.5175L5.56518 33.3534C5.49173 33.5737 5.48107 33.81 5.5344 34.036C5.58772 34.2619 5.70292 34.4686 5.86709 34.6328C6.03126 34.7969 6.23791 34.9121 6.46387 34.9655C6.68983 35.0188 6.92618 35.0081 7.14643 34.9347L12.9886 32.9862Z" stroke="#EEA128" stroke-width="2.5" stroke-linecap="round" stroke-linejoin="round"/>
</g>
<defs>
<clipPath id="clip0_3_6698">
<rect width="40" height="40" fill="white" transform="translate(0.5)"/>
</clipPath>
</defs>
</svg>
