<svg width="41" height="40" viewBox="0 0 41 40" fill="none" xmlns="http://www.w3.org/2000/svg">
<g clip-path="url(#clip0_3_6679)">
<path d="M15.5007 18.75C22.4043 18.75 28.0007 16.2316 28.0007 13.125C28.0007 10.0184 22.4043 7.5 15.5007 7.5C8.59717 7.5 3.00073 10.0184 3.00073 13.125C3.00073 16.2316 8.59717 18.75 15.5007 18.75Z" stroke="#EEA128" stroke-width="2.5" stroke-linecap="round" stroke-linejoin="round"/>
<path d="M3.00073 13.1249V19.3749C3.00073 22.4812 8.59761 25 15.5007 25C22.4039 25 28.0007 22.4812 28.0007 19.3749V13.1249" stroke="#EEA128" stroke-width="2.5" stroke-linecap="round" stroke-linejoin="round"/>
<path d="M10.5002 18.2811V24.5311" stroke="#EEA128" stroke-width="2.5" stroke-linecap="round" stroke-linejoin="round"/>
<path d="M28.0007 15.1125C33.7069 15.6344 38.0007 17.9032 38.0007 20.6251C38.0007 23.7313 32.4038 26.2501 25.5007 26.2501C22.4382 26.2501 19.6319 25.7547 17.4585 24.9313" stroke="#EEA128" stroke-width="2.5" stroke-linecap="round" stroke-linejoin="round"/>
<path d="M13.0007 24.8876V26.8751C13.0007 29.9813 18.5976 32.5001 25.5007 32.5001C32.4039 32.5001 38.0007 29.9813 38.0007 26.8751V20.6251" stroke="#EEA128" stroke-width="2.5" stroke-linecap="round" stroke-linejoin="round"/>
<path d="M30.4998 25.7812V32.0313" stroke="#EEA128" stroke-width="2.5" stroke-linecap="round" stroke-linejoin="round"/>
<path d="M20.4998 18.2811V32.0311" stroke="#EEA128" stroke-width="2.5" stroke-linecap="round" stroke-linejoin="round"/>
</g>
<defs>
<clipPath id="clip0_3_6679">
<rect width="40" height="40" fill="white" transform="translate(0.5)"/>
</clipPath>
</defs>
</svg>
