<svg width="40" height="40" viewBox="0 0 40 40" fill="none" xmlns="http://www.w3.org/2000/svg">
<path d="M1.25 18.75H38.75" stroke="#EEA128" stroke-width="2.5" stroke-linecap="round" stroke-linejoin="round"/>
<path d="M11.875 32.5C14.2912 32.5 16.25 30.5412 16.25 28.125C16.25 25.7088 14.2912 23.75 11.875 23.75C9.45875 23.75 7.5 25.7088 7.5 28.125C7.5 30.5412 9.45875 32.5 11.875 32.5Z" stroke="#EEA128" stroke-width="2.5" stroke-linecap="round" stroke-linejoin="round"/>
<path d="M28.125 32.5C30.5412 32.5 32.5 30.5412 32.5 28.125C32.5 25.7088 30.5412 23.75 28.125 23.75C25.7088 23.75 23.75 25.7088 23.75 28.125C23.75 30.5412 25.7088 32.5 28.125 32.5Z" stroke="#EEA128" stroke-width="2.5" stroke-linecap="round" stroke-linejoin="round"/>
<path d="M16.2062 28.75H23.7937" stroke="#EEA128" stroke-width="2.5" stroke-linecap="round" stroke-linejoin="round"/>
<path d="M6.25 18.75L14.0453 8.01405C14.1585 7.85903 14.3059 7.73216 14.476 7.64327C14.6461 7.55438 14.8344 7.50587 15.0263 7.50149C15.2182 7.4971 15.4085 7.53697 15.5825 7.618C15.7565 7.69903 15.9095 7.81904 16.0297 7.96873L18.0516 10.3125C18.2858 10.6039 18.5825 10.8391 18.9197 11.0006C19.2569 11.1622 19.6261 11.2461 20 11.2461C20.3739 11.2461 20.7431 11.1622 21.0803 11.0006C21.4175 10.8391 21.7142 10.6039 21.9484 10.3125L23.9703 7.96873C24.0905 7.81904 24.2435 7.69903 24.4175 7.618C24.5915 7.53697 24.7818 7.4971 24.9737 7.50149C25.1656 7.50587 25.3539 7.55438 25.524 7.64327C25.6941 7.73216 25.8415 7.85903 25.9547 8.01405L33.75 18.75" stroke="#EEA128" stroke-width="2.5" stroke-linecap="round" stroke-linejoin="round"/>
</svg>
