<svg width="23" height="22" viewBox="0 0 23 22" fill="none" xmlns="http://www.w3.org/2000/svg">
<path d="M9.24535 14.8324C8.98456 14.1894 8.50835 13.6572 7.89827 13.3268C7.2882 12.9964 6.58222 12.8884 5.90127 13.0213C5.22031 13.1542 4.60675 13.5197 4.16567 14.0552C3.72459 14.5908 3.48344 15.263 3.48352 15.9568C3.48352 16.264 3.42044 16.5678 3.29818 16.8496C3.17593 17.1314 2.99711 17.385 2.77281 17.5948C2.5485 17.8046 2.28349 17.9662 1.99421 18.0694C1.70492 18.1726 1.39752 18.2152 1.09106 18.1948C1.58396 19.051 2.34574 19.7206 3.25815 20.0996C4.17057 20.4785 5.18257 20.5457 6.13705 20.2906C7.09153 20.0355 7.9351 19.4724 8.5368 18.6888C9.13849 17.9052 9.46466 16.9448 9.46466 15.9568C9.46466 15.5591 9.3869 15.1793 9.24535 14.8324ZM9.24535 14.8324C10.4306 14.4285 11.5642 13.8865 12.6227 13.2175M7.59555 13.1925C7.99949 12.0047 8.54221 10.8688 9.21245 9.80821M12.6217 13.2175C14.5121 12.0231 16.1301 10.4444 17.3707 8.58407L21.2345 2.78835C21.3826 2.5676 21.4494 2.30232 21.4235 2.03781C21.3977 1.77329 21.2808 1.52595 21.0929 1.33802C20.905 1.15008 20.6576 1.03322 20.3931 1.00739C20.1286 0.981554 19.8633 1.04835 19.6426 1.19637L13.8468 5.06118C11.9862 6.30141 10.4072 7.9191 9.21245 9.80921C10.7296 10.4875 11.9434 11.7013 12.6217 13.2185" stroke="#EEA128" stroke-width="1.99371" stroke-linecap="round" stroke-linejoin="round"/>
</svg>
