<svg width="21" height="19" viewBox="0 0 21 19" fill="none" xmlns="http://www.w3.org/2000/svg">
<path d="M5.08831 4.79729L8.07888 7.04022L5.08831 9.28315M9.57416 9.28315H12.5647M3.59302 17.5072H17.0506C17.6454 17.5072 18.2159 17.2709 18.6366 16.8503C19.0572 16.4296 19.2935 15.8591 19.2935 15.2643V3.30201C19.2935 2.70715 19.0572 2.13665 18.6366 1.71602C18.2159 1.29539 17.6454 1.05908 17.0506 1.05908H3.59302C2.99816 1.05908 2.42767 1.29539 2.00704 1.71602C1.58641 2.13665 1.3501 2.70715 1.3501 3.30201V15.2643C1.3501 15.8591 1.58641 16.4296 2.00704 16.8503C2.42767 17.2709 2.99816 17.5072 3.59302 17.5072Z" stroke="#EEA128" stroke-width="1.99371" stroke-linecap="round" stroke-linejoin="round"/>
</svg>
