<svg width="22" height="20" viewBox="0 0 22 20" fill="none" xmlns="http://www.w3.org/2000/svg">
<path d="M16.0569 13.2333C16.5232 12.9148 17.0701 12.7349 17.6345 12.7143C18.1988 12.6938 18.7574 12.8334 19.2456 13.1171C19.7339 13.4007 20.1319 13.8168 20.3935 14.3172C20.6552 14.8176 20.7698 15.3819 20.7241 15.9447C19.5281 16.3627 18.2577 16.5254 16.9949 16.4222C16.991 15.2924 16.6657 14.186 16.0569 13.2343C15.5165 12.3867 14.771 11.6892 13.8895 11.2062C13.008 10.7232 12.0189 10.4703 11.0138 10.471C10.0088 10.4705 9.01989 10.7234 8.13857 11.2064C7.25725 11.6894 6.51197 12.3869 5.97167 13.2343M16.9939 16.4212L16.9949 16.4521C16.9949 16.6764 16.9829 16.8977 16.958 17.116C15.1491 18.1539 13.0993 18.6984 11.0138 18.695C8.85059 18.695 6.82 18.1209 5.06952 17.116C5.04389 16.8853 5.03157 16.6533 5.03263 16.4212M5.03263 16.4212C3.77024 16.5281 2.50053 16.3661 1.30539 15.9457C1.25988 15.383 1.37456 14.819 1.63617 14.3187C1.89778 13.8185 2.29563 13.4025 2.78373 13.1189C3.27182 12.8353 3.83022 12.6956 4.39437 12.716C4.95851 12.7364 5.50535 12.9161 5.97167 13.2343M5.03263 16.4212C5.03621 15.2915 5.36322 14.1861 5.97167 13.2343M14.0043 4.48984C14.0043 5.28298 13.6893 6.04365 13.1284 6.60449C12.5676 7.16533 11.8069 7.48041 11.0138 7.48041C10.2206 7.48041 9.45996 7.16533 8.89912 6.60449C8.33828 6.04365 8.0232 5.28298 8.0232 4.48984C8.0232 3.69669 8.33828 2.93603 8.89912 2.37519C9.45996 1.81434 10.2206 1.49927 11.0138 1.49927C11.8069 1.49927 12.5676 1.81434 13.1284 2.37519C13.6893 2.93603 14.0043 3.69669 14.0043 4.48984ZM19.9855 7.48041C19.9855 7.77495 19.9275 8.06661 19.8147 8.33874C19.702 8.61086 19.5368 8.85812 19.3285 9.06639C19.1203 9.27467 18.873 9.43988 18.6009 9.5526C18.3288 9.66532 18.0371 9.72333 17.7426 9.72333C17.448 9.72333 17.1563 9.66532 16.8842 9.5526C16.6121 9.43988 16.3648 9.27467 16.1566 9.06639C15.9483 8.85812 15.7831 8.61086 15.6704 8.33874C15.5576 8.06661 15.4996 7.77495 15.4996 7.48041C15.4996 6.88554 15.7359 6.31505 16.1566 5.89442C16.5772 5.47379 17.1477 5.23748 17.7426 5.23748C18.3374 5.23748 18.9079 5.47379 19.3285 5.89442C19.7492 6.31505 19.9855 6.88554 19.9855 7.48041ZM6.52792 7.48041C6.52792 7.77495 6.4699 8.06661 6.35719 8.33874C6.24447 8.61086 6.07926 8.85812 5.87098 9.06639C5.66271 9.27467 5.41545 9.43988 5.14332 9.5526C4.8712 9.66532 4.57954 9.72333 4.28499 9.72333C3.99045 9.72333 3.69879 9.66532 3.42666 9.5526C3.15454 9.43988 2.90728 9.27467 2.699 9.06639C2.49073 8.85812 2.32552 8.61086 2.2128 8.33874C2.10008 8.06661 2.04206 7.77495 2.04206 7.48041C2.04206 6.88554 2.27837 6.31505 2.699 5.89442C3.11963 5.47379 3.69013 5.23748 4.28499 5.23748C4.87985 5.23748 5.45035 5.47379 5.87098 5.89442C6.29161 6.31505 6.52792 6.88554 6.52792 7.48041Z" stroke="#EEA128" stroke-width="1.99371" stroke-linecap="round" stroke-linejoin="round"/>
</svg>
