<svg width="25" height="20" viewBox="0 0 25 20" fill="none" xmlns="http://www.w3.org/2000/svg">
<path d="M1.74536 13.6581C1.74536 14.9998 2.27836 16.2866 3.2271 17.2353C4.17584 18.1841 5.46261 18.7171 6.80434 18.7171H19.4518C20.4386 18.7181 21.3946 18.373 22.1531 17.7417C22.9117 17.1104 23.4247 16.233 23.6029 15.2624C23.781 14.2917 23.613 13.2893 23.1281 12.4298C22.6432 11.5703 21.8721 10.9081 20.9492 10.5586C21.1578 9.96532 21.1964 9.32548 21.0605 8.7114C20.9247 8.09732 20.6198 7.53346 20.1804 7.08351C19.741 6.63356 19.1845 6.31544 18.5738 6.16509C17.9631 6.01474 17.3225 6.03814 16.7244 6.23266C16.3376 4.74871 15.3884 3.4736 14.0777 2.67734C12.7671 1.88107 11.1981 1.62618 9.70281 1.96665C8.20754 2.30711 6.9035 3.21619 6.06683 4.50138C5.23016 5.78657 4.92656 7.34694 5.22031 8.85208C4.20917 9.1858 3.32904 9.82992 2.70515 10.6928C2.08126 11.5557 1.7454 12.5933 1.74536 13.6581Z" stroke="#EEA128" stroke-width="1.99371" stroke-linecap="round" stroke-linejoin="round"/>
</svg>
