<svg width="40" height="40" viewBox="0 0 40 40" fill="none" xmlns="http://www.w3.org/2000/svg">
<path d="M24.3745 16.2499C25.41 16.2499 26.2495 15.4104 26.2495 14.3749C26.2495 13.3393 25.41 12.4999 24.3745 12.4999C23.339 12.4999 22.4995 13.3393 22.4995 14.3749C22.4995 15.4104 23.339 16.2499 24.3745 16.2499Z" fill="#EEA128"/>
<path d="M15.6245 16.2499C16.66 16.2499 17.4995 15.4104 17.4995 14.3749C17.4995 13.3393 16.66 12.4999 15.6245 12.4999C14.589 12.4999 13.7495 13.3393 13.7495 14.3749C13.7495 15.4104 14.589 16.2499 15.6245 16.2499Z" fill="#EEA128"/>
<path d="M19.9998 20V35" stroke="#EEA128" stroke-width="2.5" stroke-linecap="round" stroke-linejoin="round"/>
<path d="M32.4998 22.5C32.4998 25.8152 31.1829 28.9946 28.8387 31.3388C26.4945 33.683 23.3151 35 19.9999 35C16.6847 35 13.5052 33.683 11.161 31.3388C8.81684 28.9946 7.49988 25.8152 7.49988 22.5V17.5C7.49988 14.1848 8.81684 11.0054 11.161 8.66117C13.5052 6.31696 16.6847 5 19.9999 5C23.3151 5 26.4945 6.31696 28.8387 8.66117C31.1829 11.0054 32.4998 14.1848 32.4998 17.5V22.5Z" stroke="#EEA128" stroke-width="2.5" stroke-linecap="round" stroke-linejoin="round"/>
<path d="M36.2496 28.75L31.7465 26.7828" stroke="#EEA128" stroke-width="2.5" stroke-linecap="round" stroke-linejoin="round"/>
<path d="M36.2496 11.2499L31.7465 13.2171" stroke="#EEA128" stroke-width="2.5" stroke-linecap="round" stroke-linejoin="round"/>
<path d="M3.75 11.2499L8.25312 13.2171" stroke="#EEA128" stroke-width="2.5" stroke-linecap="round" stroke-linejoin="round"/>
<path d="M3.75 28.75L8.25312 26.7828" stroke="#EEA128" stroke-width="2.5" stroke-linecap="round" stroke-linejoin="round"/>
<path d="M2.49963 20H37.4996" stroke="#EEA128" stroke-width="2.5" stroke-linecap="round" stroke-linejoin="round"/>
</svg>
