<svg width="24" height="23" viewBox="0 0 24 23" fill="none" xmlns="http://www.w3.org/2000/svg">
<path d="M12.0142 21.252C14.2239 21.2519 16.371 20.5179 18.1183 19.1653C19.8656 17.8127 21.1143 15.9181 21.6682 13.7789M12.0142 21.252C9.80452 21.2519 7.65744 20.5179 5.9101 19.1653C4.16276 17.8127 2.91412 15.9181 2.36022 13.7789M12.0142 21.252C14.7666 21.252 16.9985 16.7883 16.9985 11.2835C16.9985 5.77864 14.7666 1.31494 12.0142 1.31494M12.0142 21.252C9.26178 21.252 7.02993 16.7883 7.02993 11.2835C7.02993 5.77864 9.26178 1.31494 12.0142 1.31494M21.6682 13.7789C21.8731 12.9815 21.9828 12.1452 21.9828 11.2835C21.9855 9.56902 21.544 7.88309 20.7012 6.39004M21.6682 13.7789C18.7144 15.4164 15.3915 16.2731 12.0142 16.2678C8.51192 16.2678 5.22119 15.3651 2.36022 13.7789M2.36022 13.7789C2.1506 12.9637 2.04491 12.1252 2.04566 11.2835C2.04566 9.50577 2.51086 7.83548 3.32717 6.39004M12.0142 1.31494C13.7822 1.3142 15.5186 1.78386 17.0452 2.67572C18.5718 3.56758 19.8336 4.84953 20.7012 6.39004M12.0142 1.31494C10.2462 1.3142 8.50979 1.78386 6.9832 2.67572C5.4566 3.56758 4.19477 4.84953 3.32717 6.39004M20.7012 6.39004C18.2896 8.47893 15.2047 9.62665 12.0142 9.62206C8.69357 9.62206 5.65649 8.40369 3.32717 6.39004" stroke="#EEA128" stroke-width="2.21523" stroke-linecap="round" stroke-linejoin="round"/>
</svg>
