<svg width="24" height="20" viewBox="0 0 24 20" fill="none" xmlns="http://www.w3.org/2000/svg">
<path d="M24 2.37C23.1034 2.78044 22.1488 3.05027 21.17 3.17C22.2083 2.52999 22.9793 1.53517 23.34 0.370002C22.39 0.950002 21.34 1.37 20.21 1.59C19.754 1.0886 19.1981 0.68813 18.5781 0.414305C17.9582 0.140479 17.2878 -0.000642921 16.61 2.20186e-06C15.856 0.00770992 15.1136 0.186184 14.4385 0.522014C13.7634 0.857845 13.1732 1.3423 12.7122 1.93898C12.2512 2.53566 11.9315 3.22905 11.7769 3.96706C11.6224 4.70507 11.6371 5.4685 11.82 6.2C9.84996 6.09245 7.92553 5.56584 6.17521 4.65533C4.4249 3.74482 2.88897 2.47137 1.67 0.920002C1.03409 2.03248 0.838449 3.34298 1.12171 4.59268C1.40498 5.84238 2.14656 6.94044 3.2 7.67C2.41565 7.64141 1.65014 7.42172 0.97 7.03V7.1C0.97 9.54 2.67 11.58 4.92 12.05C4.19621 12.2484 3.43619 12.2758 2.7 12.13C3.33 14.14 5.15 15.6 7.3 15.64C6.2865 16.4622 5.11782 17.0718 3.86363 17.4326C2.60945 17.7934 1.29545 17.898 0 17.74C2.24048 19.2176 4.86613 20.0036 7.55 20C16.61 20 21.55 12.3 21.55 5.63V4.98C22.51 4.27 23.34 3.38 24 2.37Z" fill="white"/>
</svg>
